<svg width="32" height="35" viewBox="0 0 32 35" fill="none" xmlns="http://www.w3.org/2000/svg">
<path id="Vector" d="M17.2887 16.8664L22.8331 11.322L4.925 1.25699C3.73813 0.615739 2.62625 0.525739 1.65125 1.22699L17.2887 16.8664ZM23.7781 23.3576L29.5419 20.1157C30.6669 19.4857 31.2837 18.5932 31.2837 17.6032C31.2837 16.6151 30.6669 15.7207 29.5437 15.0907L24.3256 12.1601L18.4513 18.0326L23.7781 23.3576ZM0.6875 2.59011C0.5675 2.95949 0.5 3.37199 0.5 3.82386V31.3957C0.5 32.1101 0.6575 32.7251 0.9425 33.2145L16.1244 18.0307L0.6875 2.59011ZM17.2887 19.1932L2.19125 34.2926C2.48 34.4032 2.79125 34.4614 3.11937 34.4614C3.70437 34.4614 4.31375 34.2889 4.93437 33.9439L22.2875 24.1995L17.2887 19.1932Z" fill="white"/>
</svg>
