<svg width="31" height="38" viewBox="0 0 31 38" fill="none" xmlns="http://www.w3.org/2000/svg">
<g id="Group">
<path id="Vector" d="M22.5809 0.838867C22.6666 0.838867 22.7522 0.838867 22.8427 0.838867C23.0528 3.43393 22.0623 5.37296 20.8584 6.77714C19.6772 8.17163 18.0598 9.5241 15.4437 9.31888C15.2692 6.76098 16.2613 4.96577 17.4635 3.56482C18.5785 2.25921 20.6225 1.0974 22.5809 0.838867Z" fill="white"/>
<path id="Vector_2" d="M30.5 27.8489C30.5 27.8747 30.5 27.8973 30.5 27.9216C29.7648 30.1482 28.7161 32.0566 27.4363 33.8275C26.2681 35.4353 24.8364 37.5989 22.2801 37.5989C20.0713 37.5989 18.6041 36.1786 16.3402 36.1398C13.9455 36.101 12.6286 37.3275 10.4391 37.6361C10.1887 37.6361 9.93822 37.6361 9.69261 37.6361C8.08483 37.4034 6.7873 36.1301 5.84202 34.9829C3.05467 31.5928 0.900732 27.2138 0.5 21.61C0.5 21.0606 0.5 20.5129 0.5 19.9635C0.669665 15.9529 2.61839 12.6921 5.20861 11.1118C6.57562 10.2716 8.45486 9.55574 10.5474 9.87568C11.4442 10.0146 12.3604 10.3217 13.1635 10.6254C13.9245 10.9179 14.8763 11.4366 15.7779 11.4091C16.3887 11.3914 16.9963 11.073 17.6119 10.8484C19.4152 10.1972 21.183 9.45071 23.513 9.80135C26.3133 10.2247 28.3008 11.4689 29.5289 13.3886C27.16 14.8962 25.2872 17.168 25.6072 21.0477C25.8916 24.5719 27.9405 26.6337 30.5 27.8489Z" fill="white"/>
</g>
</svg>
