<svg width="25" height="26" viewBox="0 0 25 26" fill="none" xmlns="http://www.w3.org/2000/svg">
<g id="COCO/Line/Check" clip-path="url(#clip0_92_1142)">
<path id="Vector" d="M0.634507 8.65434C1.52289 4.86702 4.48006 1.90985 8.26738 1.02147C11.0025 0.379888 13.8491 0.379888 16.5842 1.02147C20.3715 1.90985 23.3287 4.86703 24.2171 8.65435C24.8587 11.3895 24.8587 14.236 24.2171 16.9712C23.3287 20.7585 20.3715 23.7157 16.5842 24.6041C13.8491 25.2456 11.0025 25.2456 8.26739 24.6041C4.48007 23.7157 1.52289 20.7585 0.634507 16.9712C-0.00707537 14.236 -0.00707532 11.3895 0.634507 8.65434Z" fill="#3DA568"/>
<path id="Line" d="M8.44441 12.9222L11.1716 15.6494L16.6261 10.195" stroke="white" stroke-width="2.04541" stroke-linecap="round" stroke-linejoin="round"/>
</g>
<defs>
<clipPath id="clip0_92_1142">
<rect width="24.545" height="24.545" fill="white" transform="translate(0.1521 0.539062)"/>
</clipPath>
</defs>
</svg>
