<svg width="60" height="60" viewBox="0 0 60 60" fill="none" xmlns="http://www.w3.org/2000/svg">
<g id="COCO/Line/Close">
<path id="Vector" d="M8.38219 22.3771C10.0109 15.4335 15.4325 10.0119 22.3761 8.38317C27.3906 7.20691 32.6094 7.20691 37.6239 8.38317C44.5675 10.0119 49.9891 15.4335 51.6178 22.3771C52.7941 27.3916 52.7941 32.6103 51.6178 37.6249C49.9891 44.5685 44.5675 49.9901 37.6239 51.6188C32.6094 52.7951 27.3906 52.795 22.3761 51.6188C15.4325 49.9901 10.0109 44.5685 8.38219 37.6249C7.20594 32.6103 7.20594 27.3916 8.38219 22.3771Z" fill="#F5F5F5" stroke="#E0E0E0"/>
<path id="Vector_2" d="M34.4194 25.5801L25.5806 34.4189M34.4194 34.4189L25.5806 25.5801" stroke="#272829" stroke-width="1.88" stroke-linecap="round"/>
</g>
</svg>
