<svg width="24" height="25" viewBox="0 0 24 25" fill="none" xmlns="http://www.w3.org/2000/svg">
<g id="devicon:google" clip-path="url(#clip0_1308_919)">
<path id="Vector" d="M16.1775 1.8295C17.3709 2.27364 18.4767 2.92155 19.4462 3.74316C19.3793 3.81024 19.3112 3.8776 19.2421 3.94573C19.2179 3.96953 19.1936 3.99345 19.1692 4.0175C19.0001 4.18396 18.8251 4.35616 18.6567 4.53206C18.0429 5.14793 17.4282 5.76246 16.8127 6.37565C16.1098 5.79244 15.2972 5.3529 14.421 5.08406L14.421 5.08405L14.4184 5.08326C13.1045 4.68805 11.7071 4.66238 10.3796 5.00906C9.05278 5.35555 7.847 6.06059 6.89435 7.0469C6.06544 7.89063 5.43765 8.91058 5.05778 10.0307C4.51406 11.6324 4.51406 13.3687 5.05778 14.9703L5.05788 14.9706C5.59171 16.5399 6.60747 17.9005 7.96026 18.8583C8.80545 19.4605 9.76689 19.88 10.7832 20.0899L10.7832 20.09L10.7929 20.0918C11.7877 20.2768 12.8081 20.277 13.8029 20.0925C14.8033 19.9229 15.7572 19.5459 16.6034 18.9859L16.6034 18.9859L16.607 18.9835C17.2843 18.5269 17.8624 17.9383 18.3069 17.253C18.7514 16.5676 19.053 15.7997 19.1938 14.9951L19.2963 14.4089H18.7012H12.7381V10.7796H22.9744C23.2585 12.6687 23.1367 14.5984 22.6152 16.4396C22.1064 18.2343 21.1183 19.8565 19.7572 21.132C18.4489 22.32 16.8547 23.1482 15.1304 23.5355L15.1304 23.5354L15.1256 23.5366C13.2072 23.9876 11.208 23.9661 9.29973 23.4741C6.95268 22.8434 4.86961 21.4769 3.35632 19.5751C1.8425 17.6727 0.978641 15.335 0.891624 12.9054C0.804606 10.4757 1.49902 8.08219 2.87286 6.07637C4.24655 4.07077 6.22713 2.55849 8.52372 1.76159C11.0079 0.909634 13.7088 0.933604 16.1775 1.8295Z" fill="white" stroke="#E33629"/>
<path id="Vector_2" d="M14.4211 5.08497L14.4189 5.08432C13.1054 4.68773 11.7081 4.66057 10.3802 5.00584C9.053 5.35093 7.8464 6.05476 6.89267 7.04014C6.22556 7.71915 5.6887 8.51228 5.30649 9.37993L2.28054 7.03712C3.63664 4.57263 5.85859 2.69105 8.52403 1.76241C11.0078 0.909993 13.7084 0.933281 16.1771 1.82837C17.371 2.27571 18.4766 2.92711 19.4451 3.7523C19.333 3.86549 19.2202 3.9774 19.1056 4.091C18.9596 4.23579 18.8108 4.38333 18.6574 4.53975C18.0422 5.15391 17.4274 5.76628 16.8131 6.37687C16.1101 5.79351 15.2974 5.35386 14.4211 5.08497Z" fill="#E33629" stroke="#E33629"/>
<path id="Vector_3" d="M0.611279 10.1561C0.820041 9.12063 1.16689 8.11792 1.64253 7.1748L5.5294 10.1917C5.02107 11.6891 5.02107 13.3124 5.5294 14.8098C4.2344 15.8098 2.93878 16.8148 1.64253 17.8248C0.452186 15.4554 0.0891526 12.7557 0.611279 10.1561Z" fill="#F8BD00"/>
<path id="Vector_4" d="M12.2381 10.2783H23.3981C23.7797 12.3726 23.6764 14.5264 23.0963 16.5746C22.5623 18.458 21.5252 20.1602 20.0963 21.4983C18.8419 20.5196 17.5819 19.5483 16.3275 18.5696C16.9494 18.1501 17.4802 17.6094 17.8881 16.9798C18.296 16.3503 18.5726 15.6448 18.7013 14.9058H12.2381C12.2363 13.3646 12.2381 11.8214 12.2381 10.2783Z" fill="#587DBD"/>
<path id="Vector_5" d="M1.64062 17.8246C2.93687 16.8246 4.2325 15.8196 5.5275 14.8096C6.02851 16.2799 6.98138 17.5544 8.25 18.4508C9.04116 19.0103 9.9403 19.3985 10.89 19.5908C11.8257 19.7649 12.7855 19.7649 13.7213 19.5908C14.6543 19.4331 15.544 19.0818 16.3331 18.5596C17.5875 19.5383 18.8475 20.5096 20.1019 21.4883C18.7292 22.7366 17.0558 23.6068 15.2456 24.0139C13.2476 24.4836 11.1655 24.4611 9.17813 23.9483C7.60632 23.5286 6.13814 22.7888 4.86563 21.7752C3.51886 20.7057 2.41882 19.3582 1.64062 17.8246Z" fill="#319F43"/>
</g>
<defs>
<clipPath id="clip0_1308_919">
<rect width="24" height="24" fill="white" transform="translate(0 0.5)"/>
</clipPath>
</defs>
</svg>
