<svg width="27" height="28" viewBox="0 0 27 28" fill="none" xmlns="http://www.w3.org/2000/svg">
<g id="brand / instagram">
<path id="coolicon" d="M13.3424 23.7419C10.6077 23.7419 10.2853 23.7275 9.21807 23.6808C8.38583 23.6534 7.56437 23.4842 6.78905 23.1805C5.4476 22.6585 4.38686 21.5973 3.86533 20.2557C3.5733 19.4776 3.41578 18.6554 3.39953 17.8244C3.33728 16.7595 3.33728 16.4104 3.33728 13.6968C3.33728 10.9543 3.35173 10.6341 3.39953 9.57244C3.41614 8.74259 3.57365 7.9216 3.86533 7.14453C4.3863 5.8011 5.44875 4.73904 6.79238 4.21859C7.56905 3.92533 8.39025 3.76741 9.22029 3.75168C10.2819 3.69165 10.631 3.69165 13.3424 3.69165C16.0994 3.69165 16.4162 3.7061 17.4667 3.75168C18.2989 3.76754 19.1223 3.92545 19.9013 4.21859C21.2446 4.73963 22.3068 5.80148 22.8284 7.14453C23.1253 7.93293 23.2837 8.76675 23.2964 9.60913C23.3586 10.6741 23.3586 11.0221 23.3586 13.7346C23.3586 16.4471 23.3431 16.8028 23.2964 17.8556C23.2798 18.6873 23.122 19.5102 22.8295 20.289C22.3066 21.6316 21.2443 22.6931 19.9013 23.215C19.1234 23.5065 18.3017 23.6639 17.4712 23.6808C16.4095 23.7419 16.0616 23.7419 13.3424 23.7419ZM13.3046 5.45144C10.5854 5.45144 10.3031 5.46478 9.24142 5.51258C8.60774 5.52098 7.98019 5.63791 7.38602 5.85832C6.50863 6.19405 5.81436 6.8855 5.47504 7.76151C5.25294 8.36215 5.13599 8.99657 5.12931 9.63692C5.07039 10.7141 5.07039 10.9965 5.07039 13.6968C5.07039 16.3648 5.0804 16.6883 5.12931 17.7589C5.13926 18.3927 5.25615 19.0204 5.47504 19.6154C5.81486 20.4908 6.50901 21.1817 7.38602 21.5174C7.97978 21.7393 8.60759 21.8563 9.24142 21.8632C10.3175 21.9254 10.601 21.9254 13.3046 21.9254C16.0316 21.9254 16.3139 21.9121 17.3667 21.8632C18.0008 21.8555 18.6288 21.7385 19.2232 21.5174C20.0953 21.1788 20.785 20.4895 21.1242 19.6176C21.3458 19.0164 21.4628 18.3817 21.4699 17.7411H21.4821C21.5299 16.6783 21.5299 16.3948 21.5299 13.679C21.5299 10.9632 21.5177 10.6774 21.4699 9.6158C21.4599 8.98264 21.343 8.35572 21.1242 7.76151C20.7858 6.88837 20.0959 6.1977 19.2232 5.85832C18.6289 5.6368 18.0008 5.51983 17.3667 5.51258C16.2917 5.45144 16.0104 5.45144 13.3046 5.45144ZM13.3424 18.8316C11.2635 18.833 9.38862 17.5818 8.59204 15.6616C7.79546 13.7414 8.23413 11.5305 9.70346 10.0599C11.1728 8.58926 13.3834 8.14868 15.3043 8.9436C17.2251 9.73852 18.4779 11.6124 18.4784 13.6912C18.4753 16.5272 16.1784 18.8261 13.3424 18.8316ZM13.3424 10.354C11.5005 10.354 10.0074 11.8471 10.0074 13.689C10.0074 15.5309 11.5005 17.024 13.3424 17.024C15.1843 17.024 16.6774 15.5309 16.6774 13.689C16.6732 11.8489 15.1825 10.3582 13.3424 10.354ZM18.6785 9.56133C18.0175 9.55887 17.4833 9.0217 17.4845 8.36072C17.4858 7.69973 18.0219 7.16455 18.6829 7.16455C19.3439 7.16455 19.8801 7.69973 19.8813 8.36071C19.8816 8.67961 19.7549 8.9855 19.5292 9.21079C19.3035 9.43607 18.9974 9.56221 18.6785 9.56133Z" fill="#272829"/>
</g>
</svg>
