<svg width="38" height="33" viewBox="0 0 38 33" fill="none" xmlns="http://www.w3.org/2000/svg">
<g id="LOGO">
<path id="Vector 16" d="M1.08792 1.32781L0 24.5626L7.07146 32.1003C8.21118 32.1521 12.0759 32.2246 18.4169 32.1003C24.7579 31.976 31.4702 31.634 34.891 28.1372C37.2223 25.7541 38.621 20.2886 35.6681 17.9574L34.5025 17.1026L35.2019 16.2478C36.756 14.3828 37.1446 9.09864 33.9585 6.45655L25.4883 0.0844727C24.6594 0.317598 20.7481 1.87176 12.8219 1.87176C7.63515 1.87176 5.25826 1.43142 1.08792 1.32781Z" fill="#1E1E1E"/>
<path id="B" d="M10.4131 26.899L11.8534 13.0524C11.8534 13.0524 18.1786 13.1779 22.899 12.549C27.6194 11.92 28.9099 11.2906 30.3575 11.7312C31.572 12.1009 32.0568 13.0361 32.0568 14.3116C32.0568 15.1668 32.0023 15.9972 31.3837 16.7835C30.3575 18.088 29.6652 18.4657 28.1474 18.9572V18.979C29.62 19.1094 30.6988 19.479 31.3837 20.0878C32.0687 20.6966 32.3056 21.1931 32.4028 22.1157C32.5286 23.3115 31.5846 24.4444 30.9552 24.9479C29.3884 26.2011 28.7211 26.2257 25.1965 26.899C18.4933 27.8431 10.4131 26.899 10.4131 26.899Z" fill="white"/>
<path id="Vector 17" d="M11.1125 11.6637L2.40918 2.49414C5.95268 2.99147 12.6667 3.40074 15.0756 3.19352L21.6031 11.1198L11.1125 11.6637Z" fill="url(#paint0_linear_1_2410)" stroke="#1E1E1E" stroke-width="0.155417"/>
</g>
<defs>
<linearGradient id="paint0_linear_1_2410" x1="-14.065" y1="-0.458772" x2="13.5215" y2="7.77831" gradientUnits="userSpaceOnUse">
<stop stop-color="#22F6DC"/>
<stop offset="1" stop-color="#D9D9D9" stop-opacity="0"/>
</linearGradient>
</defs>
</svg>
