<svg width="80" height="14" viewBox="0 0 80 14" fill="none" xmlns="http://www.w3.org/2000/svg">
<g id="_2960056556176">
<path id="Vector" fill-rule="evenodd" clip-rule="evenodd" d="M11.8941 1.32227H1.36469C1.01111 1.32227 0.709961 1.62341 0.709961 1.99029V3.18205C0.709961 3.54869 1.01111 3.85007 1.36469 3.85007H11.8941C12.2607 3.85007 12.5488 3.54893 12.5621 3.18205V2.00334C12.5621 1.62341 12.2609 1.32227 11.8941 1.32227ZM11.8941 7.93605H1.36469C1.19431 7.93605 1.02416 8.00154 0.906452 8.13254C0.775458 8.26353 0.709961 8.42063 0.709961 8.60407V9.79583C0.709961 10.1625 1.01111 10.4639 1.36469 10.4639H11.8941C12.2607 10.4639 12.5488 10.1758 12.5621 9.79583V8.60407C12.549 8.22438 12.2609 7.93605 11.8941 7.93605ZM7.2974 11.2363H1.36469C1.19431 11.2363 1.02416 11.3018 0.906452 11.4328C0.78851 11.5638 0.709961 11.7209 0.709961 11.9043V13.0961C0.709961 13.4627 1.01111 13.7641 1.36469 13.7641H7.28435C7.65099 13.7641 7.93908 13.463 7.93908 13.1094V11.9176C7.95213 11.5246 7.66404 11.2368 7.2974 11.2368V11.2363ZM12.5621 4.62251H1.36469C1.19431 4.62251 1.02416 4.68801 0.906452 4.819C0.78851 4.95 0.709961 5.1071 0.709961 5.29053V6.4823C0.709961 6.84894 1.01111 7.15032 1.36469 7.15032H12.549C12.9157 7.15032 13.2038 6.84917 13.2038 6.4823V5.29053C13.2168 4.93694 12.9157 4.6358 12.5621 4.62251Z" fill="#2DBDEF"/>
<path id="Vector_2" fill-rule="evenodd" clip-rule="evenodd" d="M24.8063 3.99437C24.4788 3.65383 24.0991 3.39185 23.6669 3.20864C23.2348 3.0252 22.7763 2.9336 22.305 2.9336C21.8468 2.92055 21.4014 3.02521 20.9823 3.2217C20.7072 3.35269 20.4585 3.53589 20.2487 3.75873V3.54918C20.2487 3.44453 20.2096 3.33964 20.1441 3.26109C20.0786 3.18254 19.9739 3.1301 19.856 3.1301H18.4023C18.2976 3.1301 18.1927 3.16949 18.1272 3.26109C18.0487 3.33964 18.0093 3.44429 18.0226 3.54918V13.3453C18.0226 13.4499 18.0617 13.5548 18.1272 13.6334C18.2058 13.7119 18.2976 13.7513 18.4023 13.7513H19.8954C20 13.7513 20.0919 13.7121 20.1704 13.6336C20.249 13.5681 20.3014 13.4632 20.2884 13.3453V9.99258C20.4979 10.2282 20.773 10.3986 21.0741 10.5033C21.4671 10.6473 21.8731 10.7259 22.2922 10.7259C22.7637 10.7259 23.235 10.634 23.6674 10.4508C24.0996 10.2676 24.4923 10.0056 24.8198 9.66509C25.1603 9.3115 25.4223 8.89241 25.6055 8.43393C25.8151 7.92325 25.9067 7.37317 25.8938 6.82309C25.9069 6.27301 25.802 5.72293 25.6055 5.19919C25.409 4.76705 25.1473 4.34796 24.8065 3.99437H24.8063ZM23.4704 7.54356C23.3919 7.7531 23.274 7.93654 23.1169 8.10669C22.8157 8.43417 22.3833 8.61737 21.9381 8.61737C21.7156 8.61737 21.493 8.57798 21.2834 8.47333C21.0869 8.38173 20.9037 8.26379 20.7464 8.10669C20.5893 7.94959 20.4713 7.7531 20.3928 7.54356C20.2224 7.09837 20.2224 6.61354 20.3928 6.16835C20.4713 5.95881 20.6023 5.77537 20.7464 5.61827C20.9035 5.46118 21.0869 5.33018 21.2834 5.23858C21.493 5.14698 21.7156 5.09453 21.9381 5.09453C22.1738 5.09453 22.3833 5.13369 22.6062 5.23858C22.8027 5.33018 22.9859 5.44812 23.1299 5.60522C23.287 5.76232 23.3919 5.94576 23.4835 6.1553C23.6406 6.61354 23.6275 7.09837 23.4704 7.54356ZM33.8952 3.14315H32.4153C32.3107 3.14315 32.2058 3.18254 32.1403 3.26109C32.0617 3.33964 32.0226 3.44429 32.0226 3.56223V3.74544C31.8391 3.52284 31.6035 3.35245 31.3545 3.23475C30.9485 3.03826 30.5033 2.94642 30.0579 2.94642C29.1018 2.94642 28.1981 3.32635 27.5173 3.99413C27.1637 4.34772 26.8886 4.76681 26.7052 5.22505C26.4957 5.73574 26.391 6.28582 26.4041 6.84895C26.391 7.39903 26.4957 7.94912 26.7052 8.47286C26.9017 8.9311 27.1634 9.35042 27.5173 9.70377C28.1853 10.3848 29.102 10.7645 30.0448 10.7645C30.49 10.7776 30.9355 10.6727 31.3413 10.4762C31.59 10.3452 31.8389 10.1751 32.0223 9.96552V10.162C32.0223 10.2667 32.0615 10.3716 32.14 10.4501C32.2186 10.5156 32.3104 10.5678 32.4151 10.5678H33.8949C33.9996 10.5678 34.1045 10.5287 34.17 10.4501C34.2485 10.3716 34.2877 10.2667 34.2877 10.162V3.57457C34.2877 3.46992 34.2485 3.36503 34.183 3.28648C34.1045 3.19488 33.9996 3.14243 33.8949 3.14243L33.8952 3.14315ZM31.8913 7.54356C31.8128 7.7531 31.6948 7.93654 31.5377 8.10669C31.3806 8.26379 31.2103 8.39478 31.014 8.48638C30.5949 8.68287 30.1103 8.68287 29.6912 8.48638C29.4948 8.39478 29.3116 8.26379 29.1542 8.10669C28.9971 7.94959 28.8792 7.7531 28.8006 7.54356C28.6435 7.09837 28.6435 6.61354 28.8006 6.16835C28.8792 5.95881 28.9971 5.78866 29.1542 5.61827C29.3113 5.46118 29.4817 5.33018 29.6912 5.23858C30.1103 5.04209 30.5949 5.04209 31.0009 5.23858C31.1974 5.33018 31.3809 5.44812 31.5247 5.60522C31.6687 5.76232 31.7867 5.94576 31.8783 6.1553C32.0615 6.61354 32.0615 7.09837 31.8913 7.54356ZM48.6417 6.65294C48.4322 6.4695 48.1835 6.3124 47.9215 6.20775C47.6465 6.0898 47.3453 6.01125 47.0572 5.94576L45.931 5.72316C45.6429 5.67072 45.4333 5.59217 45.3284 5.50057C45.2368 5.43507 45.1713 5.33042 45.1713 5.21248C45.1713 5.09477 45.2368 4.98988 45.3809 4.89828C45.5774 4.79362 45.7869 4.74118 46.0095 4.75423C46.2976 4.75423 46.5857 4.81973 46.8477 4.92462C47.1097 5.04233 47.3584 5.16027 47.5943 5.3176C47.9217 5.52715 48.2098 5.48775 48.4063 5.25211L48.9434 4.63653C49.048 4.53188 49.1005 4.40088 49.1135 4.25684C49.1005 4.09974 49.0219 3.96874 48.904 3.86385C48.6814 3.66736 48.3147 3.45782 47.8301 3.24828C47.3456 3.03873 46.73 2.93408 46.0098 2.93408C45.5646 2.92103 45.1322 2.98629 44.7133 3.11728C44.3597 3.23522 44.0192 3.40537 43.7181 3.62797C43.443 3.83751 43.2335 4.0995 43.0764 4.4137C42.9323 4.71484 42.8538 5.04233 42.8538 5.36981C42.8538 5.98539 43.0372 6.48303 43.4039 6.84967C43.7705 7.21631 44.2551 7.46524 44.8576 7.58318L46.0363 7.84517C46.285 7.88433 46.547 7.96288 46.7829 8.08082C46.9139 8.13327 46.9924 8.26402 46.9924 8.40831C46.9924 8.5393 46.927 8.65701 46.7829 8.7619C46.6389 8.86679 46.403 8.93228 46.0888 8.93228C45.7746 8.93228 45.4471 8.86679 45.159 8.72274C44.884 8.59175 44.6353 8.42159 44.3994 8.2251C44.2947 8.14655 44.1898 8.08106 44.0588 8.02861C43.9278 7.98946 43.7577 8.02861 43.5873 8.17266L42.9456 8.65724C42.7624 8.78824 42.6706 9.01083 42.723 9.22038C42.7622 9.44297 42.9326 9.65251 43.2601 9.90145C44.0721 10.4515 45.0413 10.7396 46.0233 10.7133C46.4815 10.7133 46.94 10.6611 47.3721 10.5301C47.7521 10.4121 48.1057 10.242 48.4199 10.0063C48.708 9.7968 48.9436 9.52176 49.1009 9.19427C49.258 8.88007 49.3366 8.53954 49.3366 8.18571C49.3496 7.87151 49.2841 7.55708 49.1534 7.26899C49.0224 7.05944 48.852 6.83661 48.6425 6.65341L48.6417 6.65294ZM55.1115 8.44722C55.046 8.32928 54.928 8.25074 54.784 8.22463C54.653 8.22463 54.5089 8.26402 54.4043 8.34257C54.2211 8.46052 54.0113 8.52578 53.8018 8.53907C53.7363 8.53907 53.6577 8.52601 53.5922 8.51272C53.5137 8.49967 53.4482 8.46052 53.3957 8.40807C53.3302 8.34257 53.2778 8.26402 53.2386 8.18547C53.1862 8.05448 53.1601 7.92349 53.1731 7.79249V5.10782H55.0851C55.2031 5.10782 55.3077 5.05538 55.3863 4.97683C55.4648 4.89828 55.5173 4.80644 55.5173 4.6885V3.54918C55.5173 3.43124 55.4781 3.32659 55.3863 3.26109C55.3077 3.18254 55.2031 3.14315 55.0982 3.14315H53.1729V1.3097C53.1729 1.20505 53.1337 1.08711 53.0552 1.02161C52.9766 0.956113 52.8848 0.916721 52.7802 0.903669H51.2873C51.1826 0.903669 51.0777 0.943061 50.9992 1.02161C50.9206 1.10016 50.8682 1.20505 50.8682 1.3097V3.14315H50.0169C49.9123 3.14315 49.8074 3.18254 49.7288 3.27414C49.6634 3.35269 49.6242 3.45734 49.6242 3.56223V4.70155C49.6242 4.80644 49.6634 4.9111 49.7288 4.98988C49.7943 5.08148 49.899 5.12087 50.0169 5.12087H50.8682V8.31647C50.8551 8.69616 50.9337 9.07609 51.0908 9.41663C51.2348 9.70472 51.4182 9.95366 51.6669 10.1632C51.9026 10.3597 52.1776 10.5037 52.4788 10.5823C52.7802 10.6739 53.0944 10.7263 53.4088 10.7263C53.8148 10.7263 54.2339 10.6608 54.6269 10.5298C54.9935 10.4119 55.321 10.2024 55.583 9.92732C55.7532 9.75693 55.7662 9.48213 55.6354 9.28564L55.1117 8.44746L55.1115 8.44722ZM63.2051 3.14315H61.7253C61.6206 3.14315 61.5288 3.18254 61.4502 3.26109C61.3717 3.33964 61.3323 3.44429 61.3323 3.56223V3.74544C61.1491 3.52284 60.9262 3.35245 60.6645 3.23475C60.2585 3.03826 59.8133 2.94642 59.3678 2.94642C58.4117 2.94642 57.508 3.32635 56.8272 3.99413C56.4736 4.34772 56.1986 4.76681 56.0151 5.22505C55.8056 5.73574 55.7009 6.28582 55.714 6.8359C55.7009 7.38598 55.8056 7.93606 56.0151 8.4598C56.1983 8.91805 56.4867 9.33737 56.8272 9.69096C57.4952 10.372 58.3987 10.7517 59.3548 10.7517C59.8 10.7648 60.2454 10.6599 60.6512 10.4767C60.9132 10.3457 61.1488 10.1755 61.3323 9.966V10.1625C61.3323 10.2671 61.3717 10.372 61.4502 10.4375C61.5288 10.5161 61.6206 10.5552 61.7253 10.5552H63.2051C63.4277 10.5552 63.5981 10.3851 63.5981 10.1623V3.57481C63.5981 3.46992 63.5587 3.36527 63.4934 3.28648C63.4279 3.19488 63.3231 3.14243 63.2051 3.14243V3.14315ZM61.2146 7.55661C61.136 7.76615 61.0181 7.94959 60.861 8.11974C60.7039 8.27684 60.5335 8.40783 60.3372 8.49943C60.1277 8.59103 59.9051 8.64348 59.6692 8.64348C59.4336 8.64348 59.224 8.59103 59.0145 8.49943C58.818 8.40783 58.6348 8.27684 58.4775 8.11974C58.3204 7.9624 58.2024 7.76615 58.1369 7.55661C57.9798 7.11142 57.9798 6.6266 58.1369 6.18141C58.2155 5.97186 58.3334 5.78842 58.4775 5.63132C58.6346 5.47423 58.818 5.34323 59.0145 5.25163C59.224 5.15979 59.4466 5.10759 59.6692 5.10759C59.892 5.10759 60.1144 5.14674 60.3372 5.25163C60.5337 5.34323 60.7039 5.46118 60.861 5.61827C61.0181 5.77537 61.136 5.95881 61.2146 6.16835C61.3847 6.60049 61.3847 7.11142 61.2146 7.55661ZM71.3251 8.35562L70.4739 7.70089C70.3168 7.5699 70.1597 7.5305 70.0287 7.58295C69.911 7.63539 69.8061 7.71394 69.7145 7.80554C69.5313 8.02814 69.3084 8.22463 69.0728 8.39478C68.8108 8.53883 68.5358 8.61738 68.2477 8.59127C67.9071 8.59127 67.5929 8.49967 67.3177 8.30318C67.0426 8.10669 66.8331 7.84494 66.7284 7.51745C66.6499 7.29486 66.6107 7.07226 66.6107 6.84967C66.6107 6.61378 66.6499 6.39142 66.7284 6.15554C66.807 5.946 66.9119 5.76256 67.069 5.60546C67.2261 5.44836 67.3965 5.31737 67.5927 5.23882C67.8022 5.14722 68.0248 5.09477 68.2605 5.09477C68.5486 5.08172 68.8367 5.16027 69.0856 5.30432C69.3343 5.46141 69.5438 5.6579 69.7273 5.89355C69.8058 5.98515 69.9105 6.06394 70.0284 6.11615C70.1594 6.16859 70.3165 6.1292 70.4736 5.9982L71.3249 5.35652C71.4295 5.29102 71.5083 5.18613 71.5474 5.06843C71.5999 4.93744 71.5866 4.79339 71.5083 4.67545C71.1808 4.16476 70.7356 3.74544 70.1986 3.44429C69.6355 3.1301 68.9674 2.95971 68.2211 2.95971C67.6974 2.95971 67.1734 3.06436 66.6757 3.26085C66.2042 3.45734 65.7851 3.73238 65.4315 4.08573C65.0779 4.43932 64.7899 4.85841 64.5934 5.32994C64.1873 6.31216 64.1873 7.41232 64.5934 8.39454C64.7899 8.85279 65.0649 9.28516 65.4315 9.6257C66.1781 10.359 67.1734 10.752 68.2211 10.752C68.9677 10.752 69.6355 10.5816 70.1986 10.2674C70.7356 9.96623 71.1939 9.54715 71.5213 9.02317C71.5868 8.90523 71.5999 8.76118 71.5605 8.64324C71.5083 8.53859 71.4295 8.4337 71.3249 8.35515L71.3251 8.35562ZM79.2092 9.88792L76.8648 6.45668L78.8686 3.81117C78.9602 3.69323 78.9996 3.52308 78.9472 3.37903C78.908 3.27438 78.8162 3.16949 78.5675 3.16949H76.9828C76.8909 3.16949 76.7993 3.19559 76.7208 3.23499C76.6161 3.28719 76.5376 3.36598 76.4851 3.45758L74.8873 5.69706H74.5076V0.406034C74.5076 0.301144 74.4682 0.19649 74.3897 0.117704C74.3111 0.0391549 74.2193 0 74.1146 0H72.6348C72.5299 0 72.4253 0.0393925 72.3465 0.117942C72.2679 0.196491 72.2288 0.288092 72.2288 0.406034V10.163C72.2288 10.2807 72.2679 10.3725 72.3465 10.4511C72.425 10.5296 72.5299 10.5688 72.6348 10.5688H74.1146C74.2193 10.5688 74.3242 10.5296 74.3897 10.4511C74.4682 10.3725 74.5076 10.2676 74.5076 10.163V7.58295H74.9267L76.6686 10.2546C76.7732 10.4511 76.9697 10.5688 77.1792 10.5688H78.8425C79.0912 10.5688 79.1961 10.4511 79.2486 10.3462C79.3141 10.176 79.3008 10.0056 79.2092 9.88792ZM42.3032 3.15644H40.6399C40.5089 3.15644 40.391 3.19559 40.2994 3.28743C40.2209 3.36598 40.1684 3.45782 40.1423 3.56247L38.9114 8.12021H38.61L37.3003 3.56247C37.2742 3.47087 37.2348 3.37927 37.1693 3.28743C37.0908 3.19583 36.9859 3.14338 36.8682 3.14338H35.1788C34.9562 3.14338 34.8252 3.20888 34.7597 3.36598C34.7205 3.49697 34.7205 3.64102 34.7597 3.77201L36.8551 10.1893C36.8943 10.2811 36.9337 10.3858 37.0122 10.4513C37.0908 10.5298 37.2087 10.5692 37.3264 10.5692H38.217L38.1385 10.7788L37.942 11.368C37.8765 11.5515 37.7716 11.7085 37.6145 11.8263C37.4704 11.9309 37.3003 11.9966 37.1169 11.9834C36.9598 11.9834 36.8157 11.9442 36.6717 11.8918C36.5276 11.8263 36.3966 11.7477 36.2787 11.6561C36.174 11.5776 36.043 11.5382 35.899 11.5382H35.8859C35.7288 11.5512 35.5848 11.6298 35.506 11.7738L34.9823 12.5465C34.7727 12.887 34.8904 13.0966 35.0214 13.2143C35.3095 13.4763 35.637 13.6725 36.0036 13.7905C36.4097 13.9345 36.8288 14 37.2479 14C38.0075 14 38.6361 13.7905 39.1207 13.3844C39.6183 12.9392 39.9983 12.3628 40.1815 11.7081L42.6174 3.77154C42.6699 3.62749 42.6829 3.48345 42.6305 3.35245C42.6174 3.26062 42.5258 3.14291 42.303 3.15596L42.3032 3.15644Z" fill="#131E32"/>
</g>
</svg>
