<svg width="28" height="28" viewBox="0 0 28 28" fill="none" xmlns="http://www.w3.org/2000/svg">
<g id="brand / twitter">
<path id="coolicon" d="M23.0068 7.78603C24.0033 7.19027 24.749 6.25218 25.1045 5.1469C24.1681 5.70252 23.1435 6.09392 22.0752 6.30416C20.594 4.73728 18.2471 4.35597 16.346 5.3733C14.4449 6.39063 13.4602 8.55475 13.9421 10.6564C10.1064 10.4638 6.53274 8.65194 4.11043 5.67161C2.84627 7.85209 3.49228 10.6395 5.58674 12.0415C4.82936 12.0172 4.08878 11.8121 3.42674 11.4435C3.42674 11.4635 3.42674 11.4835 3.42674 11.5035C3.42718 13.7748 5.02798 15.7313 7.25426 16.1814C6.55175 16.3726 5.81486 16.4007 5.09982 16.2637C5.72592 18.2061 7.51612 19.5368 9.55655 19.5765C7.86661 20.9029 5.77959 21.6222 3.63129 21.6187C3.25051 21.6192 2.87003 21.5973 2.49182 21.5531C4.67337 22.9549 7.21243 23.699 9.80557 23.6964C13.4132 23.7212 16.8803 22.2989 19.4313 19.7477C21.9823 17.1966 23.4043 13.7293 23.3792 10.1217C23.3792 9.9149 23.3744 9.70924 23.3647 9.50469C24.299 8.82946 25.1054 7.99297 25.746 7.03454C24.8755 7.42036 23.9522 7.67367 23.0068 7.78603Z" fill="#272829"/>
</g>
</svg>
