<svg width="22" height="23" viewBox="0 0 22 23" fill="none" xmlns="http://www.w3.org/2000/svg">
<g id="CTA to Telegram/Variant5">
<path id="bg" d="M20.4061 11.3167C20.4061 16.3577 16.3196 20.4442 11.2787 20.4442C9.35593 20.4442 7.57206 19.8497 6.10084 18.8344L2.98096 19.6144L3.79851 16.5486C2.76039 15.0671 2.15118 13.263 2.15118 11.3167C2.15118 6.27572 6.2377 2.18921 11.2787 2.18921C16.3196 2.18921 20.4061 6.27572 20.4061 11.3167Z" fill="white"/>
<path id="border" fill-rule="evenodd" clip-rule="evenodd" d="M11.2787 21.9654C17.1598 21.9654 21.9274 17.1978 21.9274 11.3167C21.9274 5.43557 17.1598 0.667969 11.2787 0.667969C5.39754 0.667969 0.629944 5.43557 0.629944 11.3167C0.629944 13.2265 1.13271 15.0189 2.01312 16.5688L0.629944 21.9654L6.1938 20.6753C7.70479 21.498 9.43714 21.9654 11.2787 21.9654ZM11.2787 20.3272C16.255 20.3272 20.2891 16.293 20.2891 11.3167C20.2891 6.34035 16.255 2.30623 11.2787 2.30623C6.30233 2.30623 2.26821 6.34035 2.26821 11.3167C2.26821 13.2381 2.8696 15.019 3.89442 16.4815L3.08734 19.508L6.16723 18.7381C7.61959 19.7403 9.38059 20.3272 11.2787 20.3272Z" fill="#272829"/>
<path id="phone" d="M8.6163 6.372C8.36312 5.86347 7.97472 5.90849 7.58235 5.90849C6.88112 5.90849 5.78772 6.74843 5.78772 8.31164C5.78772 9.59278 6.35225 10.9952 8.25455 13.093C10.0904 15.1176 12.5026 16.165 14.5052 16.1293C16.5078 16.0937 16.9198 14.3704 16.9198 13.7884C16.9198 13.5305 16.7597 13.4018 16.6494 13.3668C15.967 13.0393 14.7084 12.429 14.422 12.3144C14.1356 12.1997 13.9861 12.3548 13.8931 12.4392C13.6334 12.6867 13.1186 13.4161 12.9423 13.5801C12.7661 13.7442 12.5033 13.6611 12.3939 13.5991C11.9915 13.4376 10.9004 12.9523 10.0306 12.1092C8.95501 11.0665 8.89188 10.7077 8.68923 10.3884C8.52711 10.133 8.64608 9.97621 8.70544 9.90771C8.93719 9.64031 9.25719 9.22746 9.4007 9.0223C9.5442 8.81714 9.43028 8.50565 9.36192 8.31165C9.06793 7.47728 8.81885 6.77883 8.6163 6.372Z" fill="#272829"/>
</g>
</svg>
