<svg width="33" height="32" viewBox="0 0 33 32" fill="none" xmlns="http://www.w3.org/2000/svg">
<g id="whatsapp">
<path id="border" fill-rule="evenodd" clip-rule="evenodd" d="M16.5 31C24.232 31 30.5 24.732 30.5 17C30.5 9.26801 24.232 3 16.5 3C8.76801 3 2.5 9.26801 2.5 17C2.5 19.5109 3.161 21.8674 4.31847 23.905L2.5 31L9.81486 29.3038C11.8014 30.3854 14.0789 31 16.5 31ZM16.5 28.8462C23.0425 28.8462 28.3462 23.5425 28.3462 17C28.3462 10.4576 23.0425 5.15385 16.5 5.15385C9.95755 5.15385 4.65385 10.4576 4.65385 17C4.65385 19.5261 5.4445 21.8675 6.79184 23.7902L5.73077 27.7692L9.77993 26.7569C11.6894 28.0746 14.0046 28.8462 16.5 28.8462Z" fill="#BFC8D0"/>
<path id="bg" d="M28.5 16C28.5 22.6274 23.1274 28 16.5 28C13.9722 28 11.6269 27.2184 9.69266 25.8837L5.59091 26.9091L6.66576 22.8784C5.30092 20.9307 4.5 18.5589 4.5 16C4.5 9.37258 9.87258 4 16.5 4C23.1274 4 28.5 9.37258 28.5 16Z" fill="url(#paint0_linear_1170_14591)"/>
<path id="border_2" fill-rule="evenodd" clip-rule="evenodd" d="M16.5 30C24.232 30 30.5 23.732 30.5 16C30.5 8.26801 24.232 2 16.5 2C8.76801 2 2.5 8.26801 2.5 16C2.5 18.5109 3.161 20.8674 4.31847 22.905L2.5 30L9.81486 28.3038C11.8014 29.3854 14.0789 30 16.5 30ZM16.5 27.8462C23.0425 27.8462 28.3462 22.5425 28.3462 16C28.3462 9.45755 23.0425 4.15385 16.5 4.15385C9.95755 4.15385 4.65385 9.45755 4.65385 16C4.65385 18.5261 5.4445 20.8675 6.79184 22.7902L5.73077 26.7692L9.77993 25.7569C11.6894 27.0746 14.0046 27.8462 16.5 27.8462Z" fill="white"/>
<path id="phone" d="M13 9.50038C12.6672 8.8318 12.1565 8.89099 11.6407 8.89099C10.7188 8.89099 9.28125 9.99527 9.28125 12.0504C9.28125 13.7348 10.0234 15.5785 12.5244 18.3366C14.938 20.9984 18.1094 22.3753 20.7422 22.3284C23.375 22.2816 23.9167 20.0159 23.9167 19.2508C23.9167 18.9117 23.7062 18.7425 23.5613 18.6965C22.6641 18.2659 21.0093 17.4636 20.6328 17.3129C20.2563 17.1622 20.0597 17.366 19.9375 17.477C19.5961 17.8023 18.9193 18.7613 18.6875 18.977C18.4558 19.1926 18.1103 19.0835 17.9665 19.0019C17.4374 18.7896 16.0029 18.1516 14.8595 17.0431C13.4453 15.6723 13.3623 15.2006 13.0959 14.7808C12.8828 14.4449 13.0392 14.2389 13.1172 14.1488C13.4219 13.7973 13.8426 13.2545 14.0313 12.9848C14.2199 12.715 14.0702 12.3055 13.9803 12.0504C13.5938 10.9535 13.2663 10.0352 13 9.50038Z" fill="white"/>
</g>
<defs>
<linearGradient id="paint0_linear_1170_14591" x1="27" y1="7" x2="4.5" y2="28" gradientUnits="userSpaceOnUse">
<stop stop-color="#5BD066"/>
<stop offset="1" stop-color="#27B43E"/>
</linearGradient>
</defs>
</svg>
